<svg xmlns="http://www.w3.org/2000/svg" xmlns:xlink="http://www.w3.org/1999/xlink" viewBox="0 0 841.89 595.28"><defs><linearGradient id="linear-gradient" x1="-750.59" y1="297.64" x2="729.37" y2="297.64" gradientUnits="userSpaceOnUse"><stop offset="0" stop-color="#2baae2"/><stop offset="1" stop-color="#b9539f"/><stop offset="1" stop-color="#932a8e"/></linearGradient></defs><g id="Layer_3" data-name="Layer 3"><rect width="841.89" height="595.28" fill="url(#linear-gradient)"/></g><g id="_2" data-name="2"><line x1="598.08" y1="-36.29" x2="598.08" y2="633.02" fill="none" stroke="#ffde17" stroke-linecap="square" stroke-miterlimit="10" stroke-width="0.1"/><line x1="243.85" y1="-38.29" x2="243.85" y2="631.01" fill="none" stroke="#ffde17" stroke-linecap="square" stroke-miterlimit="10" stroke-width="0.1"/><line x1="420.97" y1="-38.29" x2="420.97" y2="631.01" fill="none" stroke="#ffde17" stroke-linecap="square" stroke-miterlimit="10" stroke-width="0.1"/><line x1="-29.35" y1="178.01" x2="871.34" y2="178.01" fill="none" stroke="#ffde17" stroke-linecap="square" stroke-miterlimit="10" stroke-width="0.1"/><line x1="-29.35" y1="217.45" x2="871.34" y2="217.45" fill="none" stroke="#ffde17" stroke-linecap="square" stroke-miterlimit="10" stroke-width="0.1"/><line x1="-29.35" y1="375.27" x2="871.34" y2="375.27" fill="none" stroke="#ffde17" stroke-linecap="square" stroke-miterlimit="10" stroke-width="0.1"/><line x1="-29.35" y1="414.71" x2="871.34" y2="414.71" fill="none" stroke="#ffde17" stroke-linecap="square" stroke-miterlimit="10" stroke-width="0.1"/><line x1="-29.35" y1="454.15" x2="871.34" y2="454.15" fill="none" stroke="#ffde17" stroke-linecap="square" stroke-miterlimit="10" stroke-width="0.1"/><line x1="-29.35" y1="493.59" x2="871.34" y2="493.59" fill="none" stroke="#ffde17" stroke-linecap="square" stroke-miterlimit="10" stroke-width="0.1"/><line x1="381.53" y1="-38.29" x2="381.53" y2="631.01" fill="none" stroke="#ffde17" stroke-linecap="square" stroke-miterlimit="10" stroke-width="0.1"/><line x1="460.4" y1="-38.29" x2="460.4" y2="631.01" fill="none" stroke="#ffde17" stroke-linecap="square" stroke-miterlimit="10" stroke-width="0.1"/><text transform="translate(240.79 493.19)" font-size="51.98" fill="#e6e7e8" font-family="NeoTech" letter-spacing="0.33em">GRABGRIP</text><polyline points="420.96 217.4 499.69 217.4 502.64 217.43 505.59 217.58 508.51 217.79 511.42 218.11 514.37 218.5 517.25 218.96 520.17 219.57 523.01 220.21 525.85 220.95 528.7 221.77 531.5 222.69 534.28 223.69 537.01 224.76 539.72 225.9 542.38 227.14 545.01 228.45 547.61 229.88 550.16 231.33 552.65 232.9 555.11 234.5 557.52 236.2 559.87 237.98 562.18 239.79 564.42 241.71 566.62 243.67 568.75 245.7 570.82 247.79 572.8 249.96 574.76 252.2 576.61 254.48 578.42 256.79 580.13 259.17 581.8 261.62 583.4 264.07 584.89 266.63 586.31 269.19 587.7 271.79 588.98 274.45 590.15 277.16 591.29 279.86 592.32 282.63 593.28 285.4 594.13 288.21 594.91 291.06 595.62 293.94 596.23 296.82 596.76 299.69 597.19 302.61 597.54 305.56 597.79 308.48 597.97 311.43 598.08 314.38 598.08 317.29 597.97 320.24 597.79 323.19 597.54 326.11 597.19 329.06 596.76 331.97 596.23 334.85 595.62 337.73 594.91 340.61 594.13 343.46 593.28 346.26 592.32 349.04 591.29 351.81 590.15 354.51 588.98 357.21 587.7 359.88 586.31 362.48 584.89 365.07 583.4 367.59 581.8 370.05 580.13 372.5 578.42 374.88 576.61 377.19 574.76 379.47 572.8 381.71 570.82 383.88 568.75 385.97 566.62 388 564.42 389.95 562.18 391.87 559.87 393.69 557.52 395.46 555.11 397.17 552.65 398.77 550.16 400.33 547.61 401.79 545.01 403.21 542.38 404.53 539.72 405.77 537.01 406.91 534.28 407.98 531.5 408.97 528.7 409.9 525.85 410.72 523.01 411.46 520.13 412.1 517.25 412.71 514.37 413.17 511.42 413.56 508.51 413.88 505.59 414.09 502.64 414.24 499.69 414.27 499.69 414.31 460.35 414.31 460.35 374.92 499.69 374.92 499.69 374.88 501.97 374.85 504.28 374.7 506.55 374.49 508.83 374.17 511.07 373.78 513.31 373.28 515.51 372.71 517.71 372.07 519.88 371.33 522.01 370.51 524.11 369.58 526.17 368.59 528.2 367.52 530.19 366.39 532.14 365.18 534.03 363.86 535.88 362.51 537.65 361.05 539.36 359.56 541.03 358 542.63 356.36 544.16 354.65 545.65 352.91 547.04 351.1 548.39 349.21 549.63 347.33 550.8 345.34 551.94 343.35 552.97 341.32 553.9 339.23 554.78 337.09 555.57 334.96 556.24 332.76 556.85 330.55 557.38 328.35 557.84 326.07 558.2 323.83 558.45 321.56 558.62 319.28 558.73 316.97 558.73 314.7 558.62 312.39 558.45 310.11 558.2 307.84 557.84 305.6 557.38 303.32 556.85 301.12 556.24 298.91 555.57 296.71 554.78 294.58 553.9 292.44 552.97 290.35 551.94 288.32 550.8 286.29 549.63 284.34 548.39 282.45 547.04 280.57 545.65 278.76 544.16 277.01 542.63 275.31 541.03 273.67 539.36 272.11 537.65 270.62 535.88 269.16 534.03 267.81 532.14 266.49 530.19 265.28 528.2 264.15 526.17 263.08 524.11 262.08 522.01 261.16 519.88 260.34 517.71 259.6 515.51 258.95 513.31 258.39 511.07 257.89 508.83 257.5 506.55 257.18 504.28 256.96 501.97 256.82 499.69 256.79 460.35 256.79 460.35 296.14 420.96 296.14 420.96 217.4" fill="#e6e7e8"/><polyline points="420.96 374.92 342.24 374.92 342.24 374.88 339.29 374.85 336.34 374.7 333.42 374.49 330.51 374.17 327.56 373.78 324.68 373.32 321.76 372.71 318.92 372.07 316.08 371.33 313.23 370.51 310.43 369.58 307.65 368.59 304.92 367.52 302.22 366.39 299.55 365.14 296.92 363.83 294.32 362.4 291.77 360.95 289.28 359.38 286.83 357.78 284.41 356.08 282.06 354.3 279.75 352.49 277.51 350.57 275.31 348.61 273.18 346.58 271.12 344.49 269.13 342.32 267.17 340.08 265.32 337.8 263.51 335.49 261.8 333.11 260.13 330.66 258.53 328.21 257.04 325.65 255.62 323.09 254.23 320.49 252.95 317.82 251.78 315.12 250.64 312.42 249.61 309.65 248.65 306.88 247.8 304.07 247.02 301.22 246.31 298.34 245.7 295.46 245.17 292.58 244.74 289.67 244.39 286.72 244.14 283.8 243.96 280.85 243.85 277.9 243.85 274.99 243.96 272.04 244.14 269.09 244.39 266.17 244.74 263.22 245.17 260.31 245.7 257.43 246.31 254.55 247.02 251.67 247.8 248.82 248.65 246.02 249.61 243.24 250.64 240.47 251.78 237.77 252.95 235.07 254.23 232.4 255.62 229.81 257.04 227.21 258.53 224.69 260.13 222.23 261.8 219.78 263.51 217.4 265.32 215.09 267.17 212.81 269.13 210.57 271.12 208.4 273.18 206.31 275.31 204.28 277.51 202.32 279.75 200.41 282.06 198.59 284.41 196.81 286.83 195.11 289.28 193.51 291.77 191.94 294.32 190.49 296.92 189.07 299.55 187.75 302.22 186.51 304.92 185.37 307.65 184.3 310.43 183.31 313.23 182.38 316.08 181.56 318.92 180.82 321.8 180.18 324.68 179.57 327.56 179.11 330.51 178.72 333.42 178.4 336.34 178.19 339.29 178.04 342.24 178.01 420.96 178.01 420.96 217.4 342.24 217.4 339.96 217.43 337.65 217.58 335.38 217.79 333.1 218.11 330.86 218.5 328.62 219 326.42 219.57 324.22 220.21 322.05 220.95 319.92 221.77 317.82 222.69 315.76 223.69 313.73 224.76 311.74 225.9 309.79 227.1 307.9 228.42 306.06 229.77 304.28 231.23 302.57 232.72 300.9 234.28 299.3 235.92 297.77 237.63 296.28 239.37 294.89 241.18 293.54 243.06 292.3 244.95 291.13 246.9 289.99 248.93 288.96 250.96 288.03 253.05 287.15 255.19 286.36 257.32 285.69 259.52 285.08 261.73 284.55 263.93 284.09 266.21 283.73 268.45 283.49 270.72 283.31 273 283.2 275.31 283.2 277.58 283.31 279.89 283.49 282.17 283.73 284.44 284.09 286.68 284.55 288.96 285.08 291.16 285.69 293.37 286.36 295.57 287.15 297.7 288.03 299.84 288.96 301.94 289.99 303.96 291.13 305.95 292.3 307.94 293.54 309.83 294.89 311.71 296.28 313.52 297.77 315.27 299.3 316.97 300.9 318.61 302.57 320.17 304.28 321.66 306.06 323.12 307.9 324.47 309.79 325.79 311.74 327 313.73 328.13 315.76 329.2 317.82 330.2 319.92 331.12 322.05 331.94 324.22 332.69 326.42 333.32 328.62 333.89 330.86 334.39 333.1 334.78 335.38 335.1 337.65 335.31 339.96 335.46 342.24 335.49 342.24 335.53 381.62 335.53 381.62 296.14 420.96 296.14 420.96 374.92" fill="#e6e7e8"/></g></svg>